<svg xmlns="http://www.w3.org/2000/svg" xmlns:xlink="http://www.w3.org/1999/xlink" width="200" zoomAndPan="magnify" viewBox="0 0 150 149.999998" height="200" preserveAspectRatio="xMidYMid meet" version="1.0"><defs><g/><clipPath id="6dd25ee771"><path d="M 12.808594 12.1875 L 138 12.1875 L 138 138.1875 L 12.808594 138.1875 Z M 12.808594 12.1875 " clip-rule="nonzero"/></clipPath></defs><g clip-path="url(#6dd25ee771)"><path fill="#000000" d="M 137.203125 51.9375 C 136.492188 47.800781 135.335938 43.792969 133.613281 39.949219 C 131.054688 34.222656 127.550781 29.183594 122.945312 24.90625 C 119.144531 21.375 114.859375 18.601562 110.117188 16.519531 C 104.535156 14.066406 98.675781 12.746094 92.605469 12.441406 C 87.554688 12.183594 82.539062 12.566406 77.570312 13.585938 C 70.140625 15.109375 63.207031 17.894531 56.660156 21.691406 C 55.292969 22.480469 54.011719 23.410156 52.488281 23.949219 C 48.214844 25.457031 44.179688 27.480469 40.363281 29.925781 C 36.300781 32.527344 32.59375 35.554688 29.25 39.03125 C 27.136719 41.226562 25.199219 43.5625 23.441406 46.050781 C 20.503906 50.210938 18.164062 54.695312 16.394531 59.476562 C 14.359375 64.96875 13.222656 70.644531 12.949219 76.484375 C 12.847656 78.617188 12.875 80.753906 13.015625 82.898438 C 13.171875 85.253906 13.4375 87.585938 13.890625 89.894531 C 15.359375 97.375 18.183594 104.316406 22.375 110.6875 C 25.460938 115.371094 29.140625 119.53125 33.398438 123.1875 C 37.265625 126.503906 41.484375 129.28125 46.035156 131.558594 C 49.652344 133.363281 53.410156 134.8125 57.308594 135.878906 C 62.230469 137.226562 67.230469 138 72.339844 138.132812 C 74.101562 138.183594 75.855469 138.132812 77.613281 138.09375 C 78.886719 138.0625 80.164062 137.964844 81.429688 137.8125 C 84.636719 137.414062 87.8125 136.835938 90.9375 135.988281 C 95.140625 134.847656 99.191406 133.3125 103.0625 131.335938 C 107.277344 129.183594 111.199219 126.589844 114.828125 123.542969 C 117.945312 120.921875 120.769531 118.023438 123.292969 114.839844 C 126.460938 110.847656 129.035156 106.496094 131.078125 101.828125 C 132.679688 98.160156 133.875 94.359375 134.695312 90.449219 C 135.535156 86.457031 135.921875 82.40625 135.792969 78.3125 C 135.773438 77.710938 135.871094 77.132812 136.015625 76.550781 C 137.25 71.558594 138.019531 66.5 137.914062 61.0625 C 138.023438 58.179688 137.738281 55.042969 137.203125 51.9375 Z M 133.632812 86.789062 C 133.148438 90.214844 132.402344 93.582031 131.273438 96.859375 C 129.609375 101.675781 127.386719 106.210938 124.503906 110.421875 C 122.570312 113.25 120.417969 115.882812 118.035156 118.347656 C 114.332031 122.167969 110.179688 125.40625 105.601562 128.101562 C 100.011719 131.394531 94.042969 133.722656 87.714844 135.121094 C 85.265625 135.660156 82.792969 136.027344 80.296875 136.277344 C 78.359375 136.46875 76.429688 136.503906 74.492188 136.535156 C 66.644531 136.667969 59.101562 135.15625 51.800781 132.359375 C 45.933594 130.113281 40.558594 126.976562 35.683594 123.019531 C 30.515625 118.816406 26.167969 113.875 22.695312 108.167969 C 19.65625 103.171875 17.441406 97.851562 16.058594 92.179688 C 15.304688 89.078125 14.832031 85.929688 14.617188 82.738281 C 14.46875 80.597656 14.441406 78.457031 14.550781 76.328125 C 14.769531 71.921875 15.527344 67.589844 16.792969 63.355469 C 17.847656 59.84375 19.222656 56.457031 20.941406 53.214844 C 22.925781 49.464844 25.285156 45.972656 28.050781 42.746094 C 31.820312 38.339844 36.136719 34.574219 41 31.4375 C 43.035156 30.125 45.113281 28.878906 47.335938 27.902344 C 47.378906 27.941406 47.421875 27.980469 47.460938 28.019531 C 46.007812 29.292969 44.507812 30.519531 43.097656 31.84375 C 38.519531 36.152344 34.496094 40.929688 31.097656 46.222656 C 27.964844 51.097656 25.410156 56.257812 23.503906 61.742188 C 22.140625 65.664062 21.140625 69.667969 20.511719 73.765625 C 20.191406 75.828125 20.03125 77.910156 19.90625 80 C 19.792969 81.945312 19.839844 83.875 19.9375 85.8125 C 20.148438 89.9375 20.828125 93.984375 21.988281 97.949219 C 23.414062 102.828125 25.546875 107.386719 28.433594 111.574219 C 32.527344 117.5 37.742188 122.175781 44.0625 125.625 C 48.316406 127.945312 52.824219 129.546875 57.550781 130.515625 C 60.546875 131.125 63.585938 131.429688 66.652344 131.519531 C 75.875 131.789062 84.652344 129.890625 93.105469 126.289062 C 99.351562 123.632812 105.097656 120.136719 110.371094 115.878906 C 114.703125 112.378906 118.605469 108.441406 122.101562 104.097656 C 125.417969 99.976562 128.25 95.550781 130.652344 90.847656 C 131.792969 88.613281 132.800781 86.308594 133.679688 83.957031 C 133.730469 83.816406 133.785156 83.679688 133.914062 83.355469 C 133.996094 84.648438 133.78125 85.722656 133.632812 86.789062 Z M 135.929688 68.003906 C 135.796875 69.074219 135.648438 70.140625 135.507812 71.207031 C 135.429688 71.164062 135.347656 71.121094 135.269531 71.082031 C 134.917969 68.441406 134.339844 65.84375 133.597656 63.285156 C 132.558594 59.679688 131.207031 56.183594 129.441406 52.871094 C 127.210938 48.679688 124.585938 44.753906 121.453125 41.164062 C 118.070312 37.296875 114.265625 33.914062 110.035156 31.015625 C 105.671875 28.027344 100.996094 25.636719 96.011719 23.839844 C 92.152344 22.441406 88.195312 21.4375 84.148438 20.800781 C 82.214844 20.5 80.265625 20.324219 78.3125 20.195312 C 76.390625 20.066406 74.476562 20.074219 72.5625 20.101562 C 68.703125 20.15625 64.894531 20.664062 61.121094 21.425781 C 60.980469 21.40625 60.820312 21.453125 60.726562 21.296875 C 66.859375 18.144531 73.300781 15.929688 80.109375 14.765625 C 84.1875 14.070312 88.292969 13.820312 92.40625 14.039062 C 98.476562 14.363281 104.324219 15.691406 109.894531 18.1875 C 115.488281 20.695312 120.351562 24.203125 124.464844 28.730469 C 129.160156 33.90625 132.398438 39.914062 134.328125 46.628906 C 135.347656 50.148438 135.980469 53.730469 136.207031 57.390625 C 136.425781 60.941406 136.378906 64.476562 135.929688 68.003906 Z M 135.929688 68.003906 " fill-opacity="1" fill-rule="nonzero"/></g><g fill="#ffffff" fill-opacity="1"><g transform="translate(38.247989, 113.457328)"><g><path d="M 39.65625 1.0625 C 32.84375 1.0625 27.398438 -0.207031 23.328125 -2.75 C 19.265625 -5.289062 16.722656 -7.679688 15.703125 -9.921875 L 15.40625 -9.921875 C 15.601562 -4.929688 15.703125 -2.285156 15.703125 -1.984375 C 15.703125 -0.660156 14.992188 0 13.578125 0 L 8.390625 0 C 7.066406 0 6.40625 -0.660156 6.40625 -1.984375 L 6.40625 -24.859375 C 6.40625 -26.179688 7.066406 -26.84375 8.390625 -26.84375 L 14.34375 -26.84375 C 15.757812 -26.84375 16.46875 -26.179688 16.46875 -24.859375 L 16.46875 -21.8125 C 17.488281 -18.757812 19.625 -15.960938 22.875 -13.421875 C 26.738281 -10.367188 31.570312 -8.84375 37.375 -8.84375 C 48.757812 -8.84375 54.453125 -12.8125 54.453125 -20.75 C 54.453125 -23.488281 52.875 -25.695312 49.71875 -27.375 C 46.570312 -29.050781 42.734375 -30.445312 38.203125 -31.5625 C 33.679688 -32.6875 29.179688 -33.957031 24.703125 -35.375 C 20.234375 -36.800781 16.421875 -39.113281 13.265625 -42.3125 C 10.117188 -45.519531 8.546875 -49.566406 8.546875 -54.453125 C 8.546875 -61.066406 10.929688 -66.328125 15.703125 -70.234375 C 20.484375 -74.148438 26.585938 -76.109375 34.015625 -76.109375 C 44.078125 -76.109375 51.296875 -73.160156 55.671875 -67.265625 L 55.984375 -67.265625 C 55.773438 -70.921875 55.671875 -72.800781 55.671875 -72.90625 C 55.671875 -74.226562 56.332031 -74.890625 57.65625 -74.890625 L 62.53125 -74.890625 C 63.851562 -74.890625 64.515625 -74.226562 64.515625 -72.90625 L 64.515625 -51.703125 C 64.515625 -50.378906 63.851562 -49.71875 62.53125 -49.71875 L 56.59375 -49.71875 C 55.164062 -49.71875 54.453125 -50.378906 54.453125 -51.703125 L 54.453125 -53.84375 C 54.453125 -56.59375 52.847656 -59.3125 49.640625 -62 C 46.441406 -64.695312 42.300781 -66.046875 37.21875 -66.046875 C 32.132812 -66.046875 28.164062 -64.976562 25.3125 -62.84375 C 22.46875 -60.707031 21.046875 -57.9375 21.046875 -54.53125 C 21.046875 -51.125 22.644531 -48.476562 25.84375 -46.59375 C 29.050781 -44.71875 32.941406 -43.242188 37.515625 -42.171875 C 42.097656 -41.109375 46.675781 -39.914062 51.25 -38.59375 C 55.820312 -37.269531 59.707031 -35.082031 62.90625 -32.03125 C 66.113281 -28.976562 67.71875 -24.753906 67.71875 -19.359375 C 67.71875 -13.972656 65.40625 -9.222656 60.78125 -5.109375 C 56.15625 -0.992188 49.113281 1.0625 39.65625 1.0625 Z M 39.65625 1.0625 "/></g></g></g></svg>